<?xml version="1.0" encoding="utf-8"?>
<!-- Generator: Adobe Illustrator 26.0.1, SVG Export Plug-In . SVG Version: 6.00 Build 0)  -->
<svg version="1.1" id="Ebene_1" xmlns="http://www.w3.org/2000/svg" xmlns:xlink="http://www.w3.org/1999/xlink" x="0px" y="0px"
	 viewBox="0 0 438.7 444.5" style="enable-background:new 0 0 438.7 444.5;" xml:space="preserve">
<g>
	<path d="M158.7,243.9c-38.1-17.6-70.1-12.5-85.8-7.8c-5.4,1.6-11.2,1.3-16.8-0.8c-17.5-6.5-27.2-6.9-32.6-1.2
		c-2.4,2.6-4.6,7.2-1.7,14.7c0.4,3,2.2,20.9-12.4,50.8c-20.1,41.1-3.8,86.7,12.1,107.2c3.7,4.8,30.7,37.7,74.8,37.7
		c12.6,0,26.7-2.7,42-9.6c17.9-8,31-18.6,39.3-25.8c35.1-30.5,44.9-80.7,24-122.1C191.2,266.8,176.8,252.3,158.7,243.9z
		 M168.2,397.1c-8.4-14.9-29.1-45.1-68-67l1.5-22.6c0.3-4.2-2.9-7.8-7.1-8.1c-4.3-0.1-7.8,2.9-8.1,7.1l-1.1,16.1
		c-4.1-1.8-8.3-3.6-12.7-5.2c-4-1.5-8.3,0.6-9.8,4.5c-1.4,3.9,0.6,8.3,4.5,9.8c54.7,20,80.9,60.8,88.7,75.2
		c-6.6,4.9-14.5,9.9-24.1,14.3c-58,26-94.5-18.4-98.5-23.5c-13-16.9-27.4-56.6-10.5-91.3c17.1-35.1,14.4-56.6,13.6-60.8
		c2.6,0.4,7.1,1.4,14.1,4c8.8,3.3,17.9,3.6,26.5,1.1c13.7-4,41.6-8.5,75.1,7c14.9,6.9,26.9,19.1,35.6,36.3
		C205.6,328.9,197.4,371.1,168.2,397.1z"/>
	<path d="M418.9,281.3c-3.1-4.6-4.6-10.3-4.4-16.3c0.9-18.6-1.7-28-8.7-31.4c-3.2-1.5-8.2-2.2-14.5,2.8c-2.7,1.3-19.2,8.5-52.2,3.6
		c-45.1-6.5-83.7,22.8-98.5,44.1c-4.4,6.4-41.5,63.7,8.7,119.8c13.1,14.6,27.1,23.9,36.5,29.6c16.3,9.9,34.6,14.8,52.7,14.8
		c25.9,0,51.5-9.9,70.9-29.1c16.2-16,25.7-34.1,28.2-53.9C442.8,323.8,428.2,294.8,418.9,281.3z M422.5,363.5
		c-2.1,16.3-10.1,31.4-23.8,45c-28.1,27.7-71.3,32.6-105,12.1c-9.3-5.6-21.5-13.8-33.1-26.8c-42.4-47.4-11.2-95.7-7.5-101
		c11-15.9,39.4-38.5,73.1-38.5c3.5,0,7.1,0.2,10.7,0.8c38.5,5.6,58.3-3.5,62-5.5c0.4,2.6,0.8,7.2,0.5,14.7c-0.4,9.3,2,18.1,7,25.5
		C414.4,301.6,427.1,326.9,422.5,363.5z"/>
	<path d="M366.5,313.8c-3.7-1.8-8.3-0.4-10.2,3.4c-25.6,51.5-72.3,66.2-72.8,66.4c-4,1.2-6.3,5.5-5.1,9.5c1,3.3,4,5.4,7.3,5.4
		c0.7,0,1.4-0.1,2.2-0.3c2.2-0.6,53.4-16.5,82-74.2C371.8,320.3,370.3,315.7,366.5,313.8z"/>
	<path d="M104,176c3.1,0,21,1.2,48.2,20.4c17.9,12.6,38,17.2,56.7,17.2c20.4,0,39.1-5.5,51.1-11.9c6.8-3.7,65.9-38,46.5-110.8
		c-1.7-6.5-3.9-12.3-6.2-17.8c0-0.1-0.1-0.1-0.1-0.2c-4.3-10.3-9.1-18.8-12.8-24.9C262.8,8.5,214.9-9.3,170.7,4.8
		c-21.7,6.9-38.4,18.8-49.6,35.3c-23.5,34.7-23.6,67.2-21.5,83.5c0.7,5.5-0.5,11.3-3.5,16.5c-9.2,16.2-11.1,25.8-6.4,32
		C91.8,174.8,96,177.7,104,176z M109.4,147.6c4.6-8.1,6.5-17.1,5.3-25.9c-1.8-14.2-1.7-42.5,19-73c9.2-13.6,23.2-23.5,41.6-29.3
		c37.6-12,78.3,3.2,99.1,36.7c0.4,0.7,1,1.7,1.5,2.5c-21.6-8.9-55-18.5-76.4-4.1c-16.4,11.1-22.4,33.3-17.8,66
		c0.5,3.8,3.8,6.6,7.5,6.6c0.4,0,0.7,0,1.1-0.1c4.2-0.6,7.1-4.4,6.5-8.6c-3.7-26.5,0.1-43.7,11.2-51.3c20-13.6,61.8,4.1,78.9,13.4
		c1.8,4.5,3.5,9.2,4.9,14.4c16.3,61.5-33.3,90.4-39.1,93.5c-18.8,10.2-60.3,17.9-91.8-4.3c-30.7-21.7-52-23.2-57.2-23.2
		c-0.2,0-0.4,0-0.5,0C104,158.3,105.7,154.1,109.4,147.6z"/>
</g>
</svg>
