<?xml version="1.0" encoding="utf-8"?>
<!-- Generator: Adobe Illustrator 26.0.1, SVG Export Plug-In . SVG Version: 6.00 Build 0)  -->
<svg version="1.1" id="Ebene_1" xmlns="http://www.w3.org/2000/svg" xmlns:xlink="http://www.w3.org/1999/xlink" x="0px" y="0px"
	 viewBox="0 0 88.1 88.1" style="enable-background:new 0 0 88.1 88.1;" xml:space="preserve">
<g>
	<g>
		<g>
			<g>
				<g>
					<g>
						<path d="M36.5,88.1c-6,0-11.8-1.5-17.2-4.6l-0.9,0.6c-4.8,3.4-10.4,3.3-14-0.3c-3.7-3.7-3.8-9.3-0.3-14.1l0.6-0.8
							C-3.2,55.2-1,38.5,10.5,25c0.1-0.2,3.6-4.3,6.9-7.6c3.3-3.3,7.5-6.8,7.6-6.9C38.5-1,55.2-3.2,68.9,4.6l0.8-0.6
							c4.8-3.4,10.4-3.3,14,0.3c0,0,0.1,0.1,0.1,0.1c3.6,3.6,3.7,9.2,0.2,14l-0.6,0.9c7.8,13.7,5.6,30.3-5.9,43.8
							c-0.2,0.3-3.7,4.4-6.9,7.6c-3.3,3.3-7.5,6.8-7.6,6.9C55,84.6,45.7,88.1,36.5,88.1z M19.2,79.2c0.4,0,0.7,0.1,1,0.3
							c12.4,7.6,27.8,5.7,40.3-4.9c0.1-0.1,4.2-3.5,7.4-6.7c3.2-3.2,6.6-7.3,6.7-7.4c0,0,0,0,0,0c10.6-12.5,12.5-27.9,4.9-40.3
							c-0.4-0.7-0.4-1.5,0.1-2.2l1.3-1.9c2.3-3.3,2.4-6.8,0.2-8.9c0,0-0.1-0.1-0.1-0.1C78.8,5,75.3,5,72.1,7.3l-1.9,1.3
							c-0.7,0.4-1.5,0.5-2.2,0.1C55.6,1,40.1,2.9,27.6,13.5c-0.1,0-4.2,3.5-7.4,6.7c-3.2,3.2-6.6,7.3-6.7,7.4
							C2.9,40.1,1,55.6,8.7,68c0.4,0.7,0.4,1.5-0.1,2.2l-1.3,1.9C5,75.3,5,78.8,7.2,81c2.2,2.2,5.8,2.2,9-0.1l2-1.3
							C18.4,79.3,18.8,79.2,19.2,79.2z"/>
					</g>
				</g>
			</g>
		</g>
	</g>
	<g>
		<g>
			<g>
				<g>
					<g>
						<g>
							<g>
								<path d="M54,52c-0.5,0.5-1.3,0.5-1.8,0c-0.5-0.5-0.5-1.3,0-1.8c0.5-0.5,1.3-0.5,1.8,0C54.5,50.7,54.5,51.5,54,52z"/>
							</g>
						</g>
					</g>
				</g>
				<g>
					<g>
						<g>
							<g>
								<path d="M53.1,53.4L53.1,53.4c-0.6,0-1.2-0.2-1.6-0.7c-0.9-0.9-0.9-2.3,0-3.2c0.9-0.9,2.3-0.9,3.2,0c0.9,0.9,0.9,2.3,0,3.2
									l0,0C54.3,53.1,53.7,53.4,53.1,53.4z M53.1,50.9c-0.1,0-0.1,0-0.2,0.1c-0.1,0.1-0.1,0.2,0,0.3c0,0,0.1,0.1,0.2,0.1l0,0
									c0,0,0.1,0,0.2-0.1l0,0c0.1-0.1,0.1-0.2,0-0.3C53.2,50.9,53.2,50.9,53.1,50.9z"/>
							</g>
						</g>
					</g>
				</g>
			</g>
		</g>
	</g>
	<g>
		<g>
			<g>
				<g>
					<g>
						<g>
							<g>
								<path d="M43.4,59.4c-0.5,0.5-1.3,0.5-1.8,0s-0.5-1.3,0-1.8c0.5-0.5,1.3-0.5,1.8,0C43.9,58.1,43.8,58.9,43.4,59.4z"/>
							</g>
						</g>
					</g>
				</g>
				<g>
					<g>
						<g>
							<g>
								<path d="M42.5,60.8L42.5,60.8c-0.6,0-1.2-0.2-1.6-0.7c-0.9-0.9-0.9-2.3,0-3.2c0.4-0.4,1-0.7,1.6-0.7h0
									c0.6,0,1.2,0.2,1.6,0.7c0.9,0.9,0.9,2.3,0,3.2l0,0C43.6,60.5,43.1,60.8,42.5,60.8z M42.5,58.3L42.5,58.3c0,0-0.1,0-0.2,0.1
									c-0.1,0.1-0.1,0.3,0,0.3c0,0.1,0.1,0.1,0.2,0.1l0,0c0,0,0.1,0,0.2-0.1l0,0c0.1-0.1,0.1-0.2,0-0.3
									C42.6,58.3,42.5,58.3,42.5,58.3z"/>
							</g>
						</g>
					</g>
				</g>
			</g>
		</g>
	</g>
	<g>
		<g>
			<g>
				<g>
					<g>
						<g>
							<g>
								<path d="M54.9,65.1c-0.5,0.5-1.3,0.5-1.8,0c-0.5-0.5-0.5-1.3,0-1.8c0.5-0.5,1.3-0.5,1.8,0C55.4,63.9,55.4,64.6,54.9,65.1z"
									/>
							</g>
						</g>
					</g>
				</g>
				<g>
					<g>
						<g>
							<g>
								<path d="M54,66.5c-0.6,0-1.1-0.2-1.6-0.7c-0.4-0.4-0.7-1-0.7-1.6s0.2-1.2,0.7-1.6c0.9-0.9,2.3-0.9,3.2,0
									c0.9,0.9,0.9,2.3,0,3.2l0,0C55.2,66.3,54.6,66.5,54,66.5z M54.9,65.1L54.9,65.1L54.9,65.1z M54.1,64c-0.1,0-0.1,0-0.2,0.1
									c-0.1,0.1-0.1,0.1-0.1,0.2s0,0.1,0.1,0.2c0.1,0.1,0.2,0.1,0.3,0s0.1-0.2,0-0.3C54.2,64,54.1,64,54.1,64z"/>
							</g>
						</g>
					</g>
				</g>
			</g>
		</g>
	</g>
	<g>
		<g>
			<g>
				<g>
					<g>
						<g>
							<g>
								<path d="M41.4,72.4c-0.5,0.5-1.3,0.5-1.8,0c-0.5-0.5-0.5-1.3,0-1.8c0.5-0.5,1.3-0.5,1.8,0C41.9,71.1,41.9,71.9,41.4,72.4z"
									/>
							</g>
						</g>
					</g>
				</g>
				<g>
					<g>
						<g>
							<g>
								<path d="M40.5,73.8c-0.6,0-1.1-0.2-1.6-0.7c-0.4-0.4-0.7-1-0.7-1.6s0.2-1.2,0.7-1.6c0.4-0.4,1-0.7,1.6-0.7l0,0
									c0.6,0,1.2,0.2,1.6,0.7c0.4,0.4,0.7,1,0.7,1.6c0,0.6-0.2,1.2-0.7,1.6l0,0C41.7,73.6,41.1,73.8,40.5,73.8z M41.4,72.4
									L41.4,72.4L41.4,72.4z M40.6,71.3c0,0-0.1,0-0.2,0.1s-0.1,0.1-0.1,0.2s0,0.1,0.1,0.2c0.1,0.1,0.2,0.1,0.3,0
									c0.1-0.1,0.1-0.1,0.1-0.2s0-0.1-0.1-0.2C40.7,71.3,40.6,71.3,40.6,71.3L40.6,71.3z"/>
							</g>
						</g>
					</g>
				</g>
			</g>
		</g>
	</g>
</g>
</svg>
