<?xml version="1.0" encoding="utf-8"?>
<!-- Generator: Adobe Illustrator 26.0.1, SVG Export Plug-In . SVG Version: 6.00 Build 0)  -->
<svg version="1.1" id="Ebene_1" xmlns="http://www.w3.org/2000/svg" xmlns:xlink="http://www.w3.org/1999/xlink" x="0px" y="0px"
	 viewBox="0 0 74.1 71.8" style="enable-background:new 0 0 74.1 71.8;" xml:space="preserve">
<path d="M59,3.5c-4.7-4.7-12.2-4.7-16.9,0c0,0,0,0,0,0l-7,7c-2.1,2.1-3.4,5-3.5,8c-0.3,5-2.4,9.7-6,13.2l-0.6,0.6
	c-3.7,3.7-3.7,9.7,0,13.3c0,0,0,0,0,0l3.6,3.6c3.7,3.7,9.7,3.7,13.3,0l0.6-0.6c3.5-3.6,8.2-5.7,13.2-6c3-0.1,5.8-1.4,7.9-3.5l7-7
	c4.7-4.7,4.7-12.2,0-16.9c0,0,0,0,0,0L59,3.5z M40.4,46.4l-0.6,0.6c-1.4,1.4-3.3,2.1-5.3,1.8l0.2-0.2c0.6-0.6,0.6-1.5,0.1-2.1
	c-0.6-0.6-1.5-0.6-2.1-0.1c0,0-0.1,0-0.1,0.1l-1.1,1.1c-0.3-0.2-0.5-0.4-0.8-0.6l-0.7-0.7l1.2-1.2c0.6-0.6,0.5-1.6-0.1-2.1
	c-0.6-0.5-1.5-0.5-2,0l-1.2,1.2l-0.7-0.7c-0.2-0.2-0.4-0.5-0.6-0.8l1.1-1.1c0.6-0.6,0.5-1.6-0.1-2.1c-0.6-0.5-1.5-0.5-2,0l-0.2,0.2
	c0-0.2,0-0.5,0-0.8c0-1.7,0.7-3.3,1.9-4.5l0.6-0.6c0.5-0.5,0.9-1,1.4-1.5l12.7,12.8C41.4,45.5,40.9,46,40.4,46.4z M68.6,30l-7,7
	c-1.6,1.6-3.7,2.6-6,2.6c-4,0.2-7.9,1.5-11.2,3.7L30.9,29.8c2.2-3.3,3.5-7.2,3.7-11.2c0.1-2.2,1-4.4,2.6-5.9l7-7
	c3.5-3.5,9.1-3.5,12.7,0l11.7,11.7C72,20.8,72,26.4,68.6,30z"/>
<path d="M43.4,12.4c-0.6,0.6-0.6,1.5,0,2.1c0.6,0.6,1.5,0.6,2.1,0c2.6-2.6,6.8-2.6,9.4,0c0.6,0.6,1.6,0.5,2.1-0.1
	c0.5-0.6,0.5-1.5,0-2C53.3,8.7,47.2,8.7,43.4,12.4z"/>
<circle cx="16.2" cy="47.1" r="1.4"/>
<circle cx="28.4" cy="55.1" r="1.4"/>
<circle cx="23.1" cy="50.6" r="1.4"/>
<circle cx="13.5" cy="55.1" r="1.4"/>
<circle cx="21.3" cy="56.9" r="1.4"/>
<circle cx="4.5" cy="54.4" r="1.4"/>
<circle cx="9.4" cy="61.7" r="1.4"/>
<circle cx="18.1" cy="63.2" r="1.4"/>
<circle cx="26.7" cy="63.2" r="1.4"/>
<circle cx="21.7" cy="70.4" r="1.4"/>
<circle cx="10.2" cy="70.4" r="1.4"/>
<circle cx="1.4" cy="62.2" r="1.4"/>
</svg>
