<?xml version="1.0" encoding="utf-8"?>
<!-- Generator: Adobe Illustrator 26.0.1, SVG Export Plug-In . SVG Version: 6.00 Build 0)  -->
<svg version="1.1" id="Ebene_1" xmlns="http://www.w3.org/2000/svg" xmlns:xlink="http://www.w3.org/1999/xlink" x="0px" y="0px"
	 viewBox="0 0 48 48" style="enable-background:new 0 0 48 48;" xml:space="preserve">
<g>
	<path d="M48,26.4c0-5.3-4.2-10.2-11.3-13c-4.3-1.7-7.2-5.9-7.4-10.7c0-0.2,0-1.8,0-1.8c0-0.6-0.4-1-1-1h-8.7c-0.6,0-1,0.4-1,1
		c0,0,0,1.8,0,1.9c-0.2,4.7-3,8.8-7.3,10.5C4.2,16.2,0,21.1,0,26.4c0,7.6,8.8,14,20.3,15.1L18.4,46c-0.2,0.5,0,1.1,0.5,1.3
		c0.1,0.1,0.3,0.1,0.4,0.1c0.4,0,0.8-0.2,0.9-0.6l2.2-5.2c0.2,0,0.4,0,0.6,0V47c0,0.6,0.4,1,1,1s1-0.4,1-1v-5.3c0.4,0,0.8,0,1.2-0.1
		l2.2,5.2c0.2,0.4,0.5,0.6,0.9,0.6c0.1,0,0.3,0,0.4-0.1c0.5-0.2,0.7-0.8,0.5-1.3l-2-4.6C39.5,40.2,48,34,48,26.4z M27.4,2
		c0,0.4,0,0.6,0,0.8l0,0v4c0,6.1,1.7,12.3,5.2,18.3c0.8,1.5,1.3,3.1,1.3,4.8c0,2.8-1.2,5.4-3.3,7.3c-1.8,1.6-4.1,2.5-6.6,2.5h-0.1
		l0,0c-0.3,0-0.7,0-1-0.1c-4.4-0.5-8-4-8.6-8.3c-0.3-2.1,0.1-4.1,1-6c3.5-6.7,5.3-13.4,5.3-20V2.8l0,0c0-0.2,0-0.5,0-0.8H27.4z
		 M2,26.4c0-4.5,3.8-8.7,10.1-11.2c2.6-1,4.7-2.8,6.2-5.1c-0.6,4.7-2.2,9.5-4.8,14.3c-1.1,2.2-1.6,4.7-1.2,7.2
		c0.4,2.9,1.9,5.5,4,7.3C8,37,2,32.1,2,26.4z M31.7,38.9c0.1-0.1,0.1-0.1,0.2-0.2c2.5-2.2,3.9-5.4,3.9-8.8c0-2-0.5-4-1.5-5.8
		c-2.7-4.7-4.2-9.5-4.7-14.2c1.5,2.4,3.7,4.3,6.4,5.4c6.3,2.5,10,6.7,10,11.1C46,32.2,40,37,31.7,38.9z"/>
</g>
</svg>
