<?xml version="1.0" encoding="utf-8"?>
<!-- Generator: Adobe Illustrator 26.0.1, SVG Export Plug-In . SVG Version: 6.00 Build 0)  -->
<svg version="1.1" id="Ebene_1" xmlns="http://www.w3.org/2000/svg" xmlns:xlink="http://www.w3.org/1999/xlink" x="0px" y="0px"
	 viewBox="0 0 44 64" style="enable-background:new 0 0 44 64;" xml:space="preserve">
<path d="M2,6c0,2.2,1.8,4,4,4v2c-3.3,0-6,2.7-6,6v42c0,2.2,1.8,4,4,4h36c2.2,0,4-1.8,4-4V18c0-3.3-2.7-6-6-6v-2c2.2,0,4-1.8,4-4V4
	c0-2.2-1.8-4-4-4H6C3.8,0,2,1.8,2,4V6z M2,18c0-2.2,1.8-4,4-4c1.1,0,2-0.9,2-2v-2h28v2c0,1.1,0.9,2,2,2c2.2,0,4,1.8,4,4v42
	c0,1.1-0.9,2-2,2H4c-1.1,0-2-0.9-2-2V18z M28,22c0-3.3-2.7-6-6-6s-6,2.7-6,6H8c-1.1,0-2,0.9-2,2v30h32V24c0-1.1-0.9-2-2-2H28z
	 M36,24v28H8V24h8c1.1,0,2-0.9,2-2c0-2.2,1.8-4,4-4s4,1.8,4,4c0,1.1,0.9,2,2,2H36z M40,6c0,1.1-0.9,2-2,2H6C4.9,8,4,7.1,4,6V4
	c0-1.1,0.9-2,2-2h32c1.1,0,2,0.9,2,2V6z"/>
</svg>
