<?xml version="1.0" encoding="utf-8"?>
<!-- Generator: Adobe Illustrator 26.0.1, SVG Export Plug-In . SVG Version: 6.00 Build 0)  -->
<svg version="1.1" id="Ebene_1" xmlns="http://www.w3.org/2000/svg" xmlns:xlink="http://www.w3.org/1999/xlink" x="0px" y="0px"
	 viewBox="0 0 60.9 89.6" style="enable-background:new 0 0 60.9 89.6;" xml:space="preserve">
<g>
	<path d="M54.1,88.4l7.2-87.5c0-0.3-0.1-0.7-0.3-0.9c-0.2-0.3-0.6-0.4-0.9-0.4H1.3C0.9-0.4,0.6-0.3,0.3,0C0.1,0.3,0,0.6,0,0.9
		l7.1,87.5c0.1,0.7,0.6,1.2,1.3,1.2h44.4C53.5,89.6,54,89.1,54.1,88.4z M51.2,63.8L35.5,68c-0.9,0.2-1.9-0.3-2.2-1.2l-4.2-15.6
		c-0.2-0.9,0.3-1.9,1.2-2.2l15.7-4.2c0.1,0,0.3-0.1,0.4-0.1c0.8,0,1.5,0.5,1.7,1.3l4.2,15.7C52.6,62.6,52.1,63.6,51.2,63.8
		C51.2,63.8,51.2,63.8,51.2,63.8z M21,86.3L9.6,74.9c-0.3-0.3-0.5-0.8-0.5-1.2c0-0.5,0.2-0.9,0.5-1.2L21,61c0.3-0.3,0.8-0.5,1.2-0.5
		c0.5,0,0.9,0.2,1.2,0.5L35,72.4c0.3,0.3,0.5,0.8,0.5,1.2c0,0.5-0.2,0.9-0.5,1.2L23.5,86.3C22.8,87,21.7,87,21,86.3z M25.3,59.2
		c-1.7-1.6-4.3-1.6-6,0L8.2,70.3l-2-24.7l13.1,8.9c0.7,0.5,1.5,0.7,2.4,0.7c0.3,0,0.5,0,0.8-0.1c1.1-0.2,2.1-0.9,2.7-1.8l1.5-2.2
		c0,0.2,0,0.4,0.1,0.6l3.2,12.1L25.3,59.2z M23.1,52c-0.3,0.4-0.7,0.7-1.1,0.7c-0.5,0.1-1,0-1.4-0.3L7.2,43.3
		c-0.8-0.5-1-1.6-0.5-2.4c0,0,0,0,0,0l9.1-13.4c0.3-0.5,0.9-0.8,1.5-0.8c0.4,0,0.7,0.1,1,0.3l13.4,9.1c0.4,0.3,0.7,0.7,0.7,1.1
		c0.1,0.5,0,0.9-0.2,1.3L23.1,52z M50.6,45.4c-0.6-2.3-3-3.6-5.2-3l-15.6,4.2l4.5-6.5c1.3-1.9,0.8-4.6-1.1-5.9L19.8,25
		c-1.9-1.3-4.6-0.8-5.9,1.1c0,0,0,0,0,0L5.6,38.3L4,19.5c2.6,0.7,5.2,1,7.8,0.9c6.4-0.2,12.8-0.7,19.1-1.6
		c10.7-1.3,21.7-2.6,26.4-0.5l-3.3,40L50.6,45.4z M58.6,2.1l-1.1,13.6c-5.6-1.9-15.9-0.7-26.9,0.6S8.5,18.9,3.8,16.7L2.6,2.1H58.6z
		 M8.8,77.6l9.5,9.5H9.6L8.8,77.6z M26.3,87.1l10.4-10.4c1.7-1.7,1.7-4.3,0-6c0,0,0,0,0,0l-0.3-0.3l15.3-4.1l0,0
		c0.6-0.2,1.2-0.5,1.7-0.9l-1.8,21.7H26.3z"/>
	<path d="M23.5,81.1l-1.1,1.1c-0.5,0.5-0.5,1.3,0,1.8c0.2,0.2,0.5,0.4,0.9,0.4c0.3,0,0.7-0.1,0.9-0.4l1.1-1.1c0.5-0.5,0.5-1.3,0-1.8
		C24.8,80.6,24,80.6,23.5,81.1L23.5,81.1z"/>
	<path d="M26.7,65.9c-0.5-0.5-1.3-0.5-1.8,0c-0.5,0.5-0.5,1.3,0,1.8l4.4,4.4c0.9,0.9,0.9,2.3,0,3.2l-3.1,3.1c-0.5,0.5-0.5,1.3,0,1.8
		c0,0,0,0,0,0c0.2,0.2,0.6,0.4,0.9,0.4c0.3,0,0.6-0.1,0.9-0.4l3.1-3.1c1.8-1.8,1.9-4.8,0-6.7c0,0,0,0,0,0L26.7,65.9z"/>
	<path d="M50.3,58.4c-0.2-0.7-0.9-1.1-1.5-0.9c-0.7,0.2-1.1,0.9-0.9,1.5l0.4,1.4c0.1,0.5,0.6,0.9,1.2,0.9c0.1,0,0.2,0,0.3,0
		c0.7-0.2,1.1-0.9,0.9-1.6c0,0,0,0,0,0L50.3,58.4z"/>
	<path d="M48.4,56.1c0.7-0.2,1-0.9,0.9-1.5l-1.1-4.2c-0.7-2.5-3.3-4-5.8-3.3c0,0,0,0,0,0l-6,1.6c-0.7,0.2-1.1,0.9-0.9,1.5
		s0.9,1.1,1.5,0.9l6-1.6c0.6-0.1,1.2-0.1,1.7,0.2c0.5,0.3,0.9,0.8,1,1.4l1.1,4.2C47,55.9,47.7,56.3,48.4,56.1L48.4,56.1z"/>
	<path d="M28,35.1c-0.5-0.4-1.3-0.3-1.8,0.2c-0.4,0.5-0.3,1.3,0.2,1.8c0,0,0.1,0.1,0.2,0.1l1.2,0.8c0.2,0.1,0.4,0.2,0.7,0.2
		c0.4,0,0.8-0.2,1-0.5c0.4-0.6,0.2-1.3-0.3-1.7L28,35.1z"/>
	<path d="M21.1,30.4c-2.1-1.4-5-0.9-6.5,1.2l-3.5,5.2c-0.4,0.5-0.4,1.3,0.2,1.8c0,0,0.1,0,0.1,0.1c0.2,0.1,0.4,0.2,0.7,0.2
		c0.4,0,0.8-0.2,1-0.5l3.5-5.2c0.3-0.5,0.8-0.8,1.4-0.9c0.6-0.1,1.2,0,1.7,0.3l3.6,2.4c0.6,0.4,1.4,0.2,1.7-0.3
		c0.4-0.6,0.2-1.4-0.3-1.7l0,0L21.1,30.4z"/>
</g>
</svg>
