<?xml version="1.0" encoding="utf-8"?>
<!-- Generator: Adobe Illustrator 26.0.1, SVG Export Plug-In . SVG Version: 6.00 Build 0)  -->
<svg version="1.1" id="Ebene_1" xmlns="http://www.w3.org/2000/svg" xmlns:xlink="http://www.w3.org/1999/xlink" x="0px" y="0px"
	 viewBox="0 0 128 128" style="enable-background:new 0 0 128 128;" xml:space="preserve">
<path d="M74,37.6C70.7,18.3,61.4,0,54.9,0c-0.3,0-0.5,0-0.7,0.1c-5.6,1.2-9.5,21.9-6,42.4C51.7,62.8,62.5,80,67.4,80
	c0.2,0,0.4,0,0.5-0.1C73.4,78.9,77.4,57.7,74,37.6z M62.9,39.6c1.7,9.8,2.8,19.7,3.2,29.6c-2.9-9.4-5.2-19-6.8-28.8
	c-1.7-9.6-2.7-19.4-3.2-29.1C59,20.6,61.3,30,62.9,39.6z M70,67.2c-0.5-9.5-1.6-18.9-3.2-28.2c-1.5-9-3.6-18-6.3-26.7
	c-0.4-1.2-0.7-2.2-1-3.2c3.7,5.8,8.2,16.2,10.4,29.2C71.7,47.8,71.7,57.6,70,67.2z M52.1,12.7c0.5,9.5,1.6,19,3.2,28.4
	c1.5,9,3.6,17.9,6.2,26.7c0.1,0.3,0.2,0.5,0.2,0.8c-4.7-8.3-8-17.4-9.6-26.8C50.5,32.1,50.4,22.3,52.1,12.7z"/>
<path d="M100.2,56c-0.7,0.1-1.5,0.2-2.1,0.5C91.6,59,80.8,71.7,74.4,87c-6.7,16.2-7,32.7-4.6,38.4c0.3,1.1,1.1,1.9,2.1,2.4
	c0.4,0.2,0.8,0.2,1.3,0.2c5.2,0,18.4-13,25.9-31c6.6-15.8,7.5-31.6,5.1-37.9C103.5,57.4,102.4,55.8,100.2,56z M75.9,118.3
	c2.4-9.2,5.4-18.3,9.1-27.1c3.6-8.7,7.7-17.2,12.5-25.3c-2.3,9.1-5.3,18.1-8.9,26.8C84.9,101.5,80.7,110.1,75.9,118.3z M78.1,88.5
	c3.5-8.7,8.7-16.7,15.2-23.5c-0.3,0.4-0.5,0.9-0.8,1.4c-4.2,7.5-8,15.3-11.3,23.3c-3.4,8.1-6.2,16.3-8.5,24.8
	c-0.1,0.3-0.2,0.7-0.3,1C72.6,106.2,74.6,97.1,78.1,88.5z M95.4,95.5c-3.5,8.7-8.7,16.6-15.2,23.4c0.2-0.4,0.5-0.9,0.8-1.3
	c4.2-7.5,8-15.3,11.3-23.3c3.3-8.1,6.2-16.4,8.4-24.8c0.3-1.2,0.6-2.2,0.8-3.2C101.7,72.6,100.5,83.2,95.4,95.5z"/>
<path d="M32.6,33c2.5-4.9,2-17.5-3.2-31.7c-0.4-1-1.5-1.6-2.6-1.2c-1,0.4-1.6,1.5-1.2,2.5c3.8,10.3,4.5,18.7,4.2,23.9
	c-0.2-0.9-0.5-1.8-0.8-2.9C27,16,24.3,8.5,21.1,1.2c-0.4-1-1.6-1.5-2.6-1c-1,0.4-1.5,1.6-1,2.6c3.3,7.7,6.1,15.7,8.3,23.8
	C22.3,21.2,12.2,1.2,12.2,1.2c-0.5-1-1.6-1.5-2.6-1s-1.5,1.6-1,2.6c0,0,8.9,18.1,13.1,24.7C14.6,20.9,9,13,5.1,4.1
	C4.7,3.2,4.3,2.3,3.9,1.3c-0.4-1-1.6-1.5-2.6-1.1s-1.5,1.6-1.1,2.6c0,0,0,0,0,0c0.4,1.1,0.8,2.1,1.3,3C8.9,22.5,22.3,36,28.6,36
	C29.1,36,31.1,36,32.6,33z"/>
<path d="M95.4,33c-2.5-4.9-2-17.5,3.2-31.7c0.4-1,1.5-1.6,2.6-1.2c1,0.4,1.6,1.5,1.2,2.5c-3.8,10.3-4.5,18.7-4.2,23.9
	c0.2-0.9,0.5-1.8,0.8-2.9c2.2-7.7,4.8-15.2,8-22.5c0.4-1,1.6-1.5,2.6-1c1,0.4,1.5,1.6,1,2.6c-3.3,7.7-6.1,15.7-8.3,23.8
	c3.5-5.4,13.6-25.4,13.6-25.4c0.5-1,1.6-1.5,2.6-1c1,0.5,1.5,1.6,1,2.6l0,0c0,0-8.9,18.1-13.1,24.7c7-6.6,12.6-14.6,16.6-23.4
	c0.4-0.9,0.8-1.8,1.2-2.9c0.4-1,1.6-1.5,2.6-1.1c1,0.4,1.5,1.6,1.1,2.6l0,0c-0.4,1.1-0.8,2.1-1.3,3C119.1,22.5,105.7,36,99.4,36
	C98.9,36,96.9,36,95.4,33z"/>
<path d="M36.8,48l-0.1,0c-5.8,0-14.2,19.1-15.1,39.4c-0.8,18,4.7,34.6,8.8,39.1c1.6,1.8,2.9,1.5,2.9,1.5c5.7,0,14.2-19.5,15.1-39.4
	c0.8-17.9-3.5-33.8-8.1-38.8C39.4,48.8,38.2,48.1,36.8,48z M33,87.9c0.4-9.8,1.5-19.5,3.2-29.1c0.9,9.7,1.2,19.5,0.7,29.3
	c-0.4,9.9-1.5,19.7-3.3,29.4C32.7,107.7,32.5,97.8,33,87.9z M25.6,87.5c0.4-9.8,2.6-19.5,6.5-28.5c-0.1,0.5-0.2,1.1-0.3,1.7
	c-1.5,8.9-2.4,17.9-2.8,26.9c-0.4,9-0.3,18.1,0.4,27.1c0,0.4,0.1,0.8,0.1,1.2C26.4,106.8,25.1,97.2,25.6,87.5z M44.4,88.5
	c-0.4,9.8-2.6,19.4-6.5,28.3c0.1-0.5,0.2-1,0.3-1.5c1.5-8.9,2.4-17.9,2.8-26.9c0.4-9.1,0.3-18.1-0.5-27.2c-0.1-1.3-0.2-2.4-0.3-3.5
	C42.6,63.8,45,74.7,44.4,88.5z"/>
</svg>
