<?xml version="1.0" encoding="utf-8"?>
<!-- Generator: Adobe Illustrator 26.0.1, SVG Export Plug-In . SVG Version: 6.00 Build 0)  -->
<svg version="1.1" id="Ebene_1" xmlns="http://www.w3.org/2000/svg" xmlns:xlink="http://www.w3.org/1999/xlink" x="0px" y="0px"
	 viewBox="0 0 62 62" style="enable-background:new 0 0 62 62;" xml:space="preserve">
<g>
	<path d="M30,51h22V33H30V51z M32,35h18v14H32V35z"/>
	<rect x="34" y="37" width="14" height="2"/>
	<rect x="34" y="41" width="2" height="2"/>
	<rect x="38" y="41" width="6" height="2"/>
	<rect x="46" y="41" width="2" height="2"/>
	<rect x="34" y="45" width="14" height="2"/>
	<path d="M62,20c0-7.4-5.7-13.4-13-13.9V6c0-1.1-0.9-2-2-2h-0.2l-1-4h-9.6l-1,4H35c-1.1,0-2,0.9-2,2v2c0,0.6,0.3,1.1,0.7,1.5
		C33.2,10.7,33,12,33,13.2v5.5c0,1.2,0.2,2.4,0.6,3.5l-0.4,0.1c-4.9,1.1-8.3,5.3-8.3,10.3c0,0.3,0,0.5,0,0.8l0.8,11.4
		c-2.8-2.6-6.5-3.5-9.4-2.2c-1-1.8-1.8-3.7-2.5-5.6c4.6-0.4,8.1-4.3,8.1-9v-1h-1c-3.9,0-7.2,2.4-8.4,5.9C11.5,29,11,25,11,21H9
		c0,0.7,0,1.3,0.1,2H9v3.8c0,1.9-0.1,3.8-0.3,5.7C7.2,29.8,4.3,28,1,28H0v1c0,4.6,3.5,8.5,8,8.9c-0.2,1.4-0.5,2.7-0.8,4.1
		C3.2,42.6,0,46.8,0,52c0,5.5,3.6,10,8,10c2.7,0,5.2-1.7,6.6-4.4c2.1,2.8,5.2,4.4,8.1,4.4c1.2,0,2.4-0.3,3.5-0.9
		c0.5-0.3,1-0.7,1.4-1.1c0.9,1.3,2.4,2,4,2h18.6c2.6,0,4.8-2,5-4.6L57,33.4c0-0.3,0-0.5,0-0.8c0-0.6-0.1-1.2-0.2-1.9
		C60.1,28.1,62,24.2,62,20z M19.9,29.1c-0.5,3-2.8,5.4-5.8,5.8C14.6,31.9,16.9,29.6,19.9,29.1z M2.1,30.1c3,0.5,5.4,2.8,5.8,5.8
		C4.9,35.4,2.6,33.1,2.1,30.1z M54,25.3c-1.4-1.4-3.2-2.4-5.3-2.9l-0.4-0.1c0.4-1.1,0.6-2.3,0.6-3.5v-5.5c0-0.4,0-0.8-0.1-1.2
		c4,0.5,7.1,3.8,7.1,7.9C56,21.9,55.3,23.8,54,25.3z M46.9,12H35.1c0.1-0.7,0.3-1.4,0.5-2h10.7C46.6,10.6,46.8,11.3,46.9,12z
		 M37.8,2h6.4l0.5,2h-7.4L37.8,2z M35,6h12l0,2H35V6z M14.7,43.7c-0.4,0.4-0.8,0.8-1.1,1.2c-1.2-1.5-2.7-2.4-4.4-2.7
		c0.7-2.9,1.1-5.8,1.4-8.7C11.6,37,13,40.4,14.7,43.7z M8,60c-3.3,0-6-3.6-6-8s2.7-8,6-8c1.7,0,3.4,1.1,4.5,2.8
		c-0.1,0.2-0.2,0.5-0.2,0.7c-0.7,2.5-0.3,5.4,1,8C12.4,58.2,10.3,60,8,60z M25.3,59.3c-3.1,1.8-7.5-0.1-9.8-4.2
		c-1.3-2.3-1.8-4.9-1.2-7.1c0.4-1.5,1.3-2.7,2.5-3.4c0.8-0.5,1.7-0.7,2.6-0.7c2.6,0,5.5,1.8,7.3,4.8c1.3,2.3,1.8,4.9,1.2,7.1
		C27.3,57.5,26.5,58.6,25.3,59.3z M55,33.3l-1.7,23.9c-0.1,1.6-1.4,2.8-3,2.8H31.7c-1.2,0-2.3-0.7-2.7-1.8c0.3-0.5,0.5-1.1,0.7-1.7
		c0.7-2.7,0.2-5.9-1.4-8.7c-0.1-0.1-0.2-0.3-0.3-0.4l-1-14.1c0-0.2,0-0.4,0-0.6c0-4,2.8-7.5,6.7-8.3l1.4-0.3H42v-2h-6.3
		c-0.4-1-0.7-2.1-0.7-3.2V14h12v4.8c0,1.1-0.2,2.2-0.7,3.2H44v2h2.9l1.4,0.3c3.9,0.9,6.7,4.3,6.7,8.3C55,32.9,55,33.1,55,33.3z
		 M55.3,26.8C57,25,58,22.6,58,20c0-5.4-4.2-9.7-9.5-10c-0.1-0.2-0.1-0.3-0.2-0.5C48.7,9.1,49,8.6,49,8.1c6.2,0.5,11,5.7,11,11.9
		c0,3.3-1.4,6.4-3.8,8.7C56,28.1,55.7,27.4,55.3,26.8z"/>
</g>
</svg>
