<?xml version="1.0" encoding="utf-8"?>
<!-- Generator: Adobe Illustrator 26.0.1, SVG Export Plug-In . SVG Version: 6.00 Build 0)  -->
<svg version="1.1" id="_x3C_Layer_x3E_" xmlns="http://www.w3.org/2000/svg" xmlns:xlink="http://www.w3.org/1999/xlink" x="0px"
	 y="0px" viewBox="0 0 255 255" style="enable-background:new 0 0 255 255;" xml:space="preserve">
<style type="text/css">
	.st0{fill:#FFFFFF;}
	.st1{fill:#42210B;}
	.st2{fill:#ED1C24;}
	.st3{fill:#2E3192;}
	.st4{fill:#93278F;}
	.st5{fill:#FFAB20;}
	.st6{fill:#79774C;}
	.st7{fill:#39B54A;}
	.st8{fill:#22B573;}
	.st9{fill:#997759;}
	.st10{fill:#0064A6;}
	.st11{fill:#54B1D9;}
	.st12{fill:#29A9E0;}
	.st13{fill:#F7931E;}
	.st14{fill:#009245;}
	.st15{fill:#00A7B7;}
	.st16{fill:#29ABE2;}
	.st17{fill:#896239;}
	.st18{fill:#754C24;}
	.st19{fill:#0B5587;}
	.st20{fill:#00A99D;}
	.st21{fill:#00CAFF;}
	.st22{fill:#00ACE4;}
	.st23{fill:#65C8D0;}
</style>
<path d="M131.27,114.6c-2.22,0.44-4.13,1.73-5.39,3.61l-12.81,19.25c-1.26,1.89-1.7,4.14-1.26,6.37c0.44,2.21,1.72,4.12,3.61,5.38
	l31.23,20.8l0,0c1.43,0.96,3.07,1.41,4.68,1.41c2.74,0,5.43-1.32,7.06-3.78l12.81-19.24c1.26-1.89,1.7-4.14,1.26-6.37
	c-0.44-2.22-1.72-4.13-3.61-5.39l-31.23-20.79C135.73,114.6,133.48,114.16,131.27,114.6z M151.06,161.54l-29.54-19.66l11.69-17.55
	l29.54,19.65L151.06,161.54z M237.25,68.23h-70.15V41.91c0-5.32-4.33-9.65-9.65-9.65H100.7c-5.32,0-9.65,4.33-9.65,9.65v26.32H17.74
	c-8.41,0-15.24,6.84-15.24,15.25v128.5c0,8.4,6.83,15.24,15.24,15.24h219.51c8.41,0,15.25-6.84,15.25-15.24V83.48
	C252.5,75.07,245.66,68.23,237.25,68.23z M210.99,137.37l10.8-1.63c0.36-0.04,0.61,0.08,0.78,0.19c0.16,0.12,0.36,0.33,0.41,0.69
	l3.03,20.1c0.06,0.36-0.08,0.62-0.2,0.79c-0.11,0.16-0.32,0.36-0.68,0.41l-14.14,2.13V137.37z M100.54,41.91
	c0-0.09,0.08-0.17,0.17-0.17h56.73c0.09,0,0.17,0.08,0.17,0.17v26.32h-57.07V41.91z M77.82,100.36c1.43-0.54,2.96-0.82,4.51-0.82
	c7.08,0,12.84,5.75,12.84,12.83c0,7.07-5.77,12.82-12.84,12.82c-1.56,0-3.08-0.28-4.51-0.81V100.36z M77.82,166.93l1.19-1.47
	l10.94,30.23l-12.13-2.03V166.93z M45.35,162.21l-6.84,3.21l-8.95-19.09l15.8-7.41V162.21z M45.35,128.45l-21.53,10.1
	c-1.83,0.84-3.23,2.37-3.92,4.27c-0.7,1.91-0.61,3.97,0.26,5.81l10.56,22.54c0.86,1.83,2.38,3.23,4.28,3.92
	c0.84,0.31,1.72,0.46,2.59,0.46c1.1,0,2.2-0.24,3.22-0.72l4.54-2.13v45.05H17.74c-3.18,0-5.75-2.59-5.75-5.75V83.48
	c0-3.18,2.58-5.77,5.75-5.77h27.61V128.45z M68.33,94.79v35.15v33.64v38.12v15.97h-13.5v-49.42v-44.24V79.02h13.5V94.79z
	 M178.51,186.09c-3.27-6.1-9.69-10.25-17.07-10.25c-10.66,0-19.34,8.68-19.34,19.35c0,10.66,8.68,19.34,19.34,19.34
	c7.39,0,13.81-4.15,17.07-10.24v13.45H77.82v-14.45l10.99,1.84c0.54,0.09,1.08,0.13,1.62,0.13c2.73,0,5.31-1.18,7.1-3.32
	c2.08-2.49,2.67-5.81,1.57-8.86l-11.25-31.06c-1.13-3.14-3.91-5.43-7.24-6c-0.93-0.16-1.87-0.16-2.78-0.03v-21.77
	c1.48,0.31,2.99,0.47,4.51,0.47c12.31,0,22.32-10.01,22.32-22.31c0-12.31-10.01-22.32-22.32-22.32c-1.52,0-3.03,0.16-4.51,0.47
	v-12.8h13.23h76.04h11.42V186.09z M171.3,195.19c0,5.43-4.42,9.85-9.87,9.85c-5.43,0-9.85-4.42-9.85-9.85
	c0-5.44,4.42-9.88,9.85-9.88C166.88,185.31,171.3,189.74,171.3,195.19z M201.51,129.22v41.85v46.6H188V79.02h13.51V129.22z
	 M243.01,211.98c0,3.17-2.59,5.75-5.77,5.75h-26.26v-48.1l15.55-2.34c5.74-0.86,9.71-6.23,8.84-11.99l-3.03-20.1
	c-0.42-2.79-1.9-5.23-4.17-6.91c-2.27-1.67-5.04-2.36-7.82-1.93l-9.38,1.42V77.72h26.26c3.18,0,5.77,2.59,5.77,5.77V211.98z"/>
</svg>
