<?xml version="1.0" encoding="utf-8"?>
<!-- Generator: Adobe Illustrator 26.0.1, SVG Export Plug-In . SVG Version: 6.00 Build 0)  -->
<svg version="1.1" id="_x3C_Layer_x3E_" xmlns="http://www.w3.org/2000/svg" xmlns:xlink="http://www.w3.org/1999/xlink" x="0px"
	 y="0px" viewBox="0 0 255 255" style="enable-background:new 0 0 255 255;" xml:space="preserve">
<style type="text/css">
	.st0{fill:#FFFFFF;}
	.st1{fill:#42210B;}
	.st2{fill:#ED1C24;}
	.st3{fill:#2E3192;}
	.st4{fill:#93278F;}
	.st5{fill:#FFAB20;}
	.st6{fill:#79774C;}
	.st7{fill:#39B54A;}
	.st8{fill:#22B573;}
	.st9{fill:#997759;}
	.st10{fill:#0064A6;}
	.st11{fill:#54B1D9;}
	.st12{fill:#29A9E0;}
	.st13{fill:#F7931E;}
	.st14{fill:#009245;}
	.st15{fill:#00A7B7;}
	.st16{fill:#29ABE2;}
	.st17{fill:#896239;}
	.st18{fill:#754C24;}
	.st19{fill:#0B5587;}
	.st20{fill:#00A99D;}
	.st21{fill:#00CAFF;}
	.st22{fill:#00ACE4;}
	.st23{fill:#65C8D0;}
</style>
<g>
	<path d="M139.21,2.5c-17.35,0-31.47,14.12-31.47,31.48c0,17.35,14.12,31.47,31.47,31.47c17.36,0,31.48-14.12,31.48-31.47
		C170.7,16.62,156.57,2.5,139.21,2.5z M139.21,53.1c-10.54,0-19.12-8.57-19.12-19.11c0-10.55,8.58-19.12,19.12-19.12
		c10.55,0,19.12,8.57,19.12,19.12C158.33,44.52,149.76,53.1,139.21,53.1z"/>
	<path d="M201.85,80.68c-0.42,10.81-0.83,21.62-1.26,32.41c-14.87,0-29.74,0-44.6,0c-2.53-9.17-5.05-18.35-7.58-27.52
		c-0.1-0.39-0.26-0.76-0.43-1.1c-5.6-15.33-22.62-18.45-37.34-15.77c-3.67-3.35-9.32-5.14-14.71-7.27
		c-7.48-2.98-17.99-9.57-26.4-8.05c-9.24,1.67-11.71,9.54-13.8,17.33c-2.82,10.55-5.66,21.12-8.49,31.68
		c-4.01,14.92-14.99,37.38,6.05,43.96c4.84,1.52,9.78,2.78,14.66,4.16c3.85,1.1,8.44,3.11,12.54,2.86c3.84-0.23,6.43-1.89,8.34-4.24
		c1.91,2.57,4.08,4.95,6.49,6.99c-1.36,11.96-2.71,23.92-4.07,35.89c-11.65,13.54-23.32,27.07-34.97,40.61
		c-5.17,6,3.53,14.78,8.73,8.74c11.84-13.73,24.37-27.08,35.58-41.32c4.07-5.17,3.58-13,4.3-19.38c0.68-6.11,1.38-12.23,2.08-18.34
		c1.04,0.26,2.09,0.46,3.17,0.56c3.71,0.34,7.45-0.42,10.86-2.01c0.18,0.51,0.43,1.03,0.81,1.55c7.67,10.56,15.32,21.12,22.99,31.68
		c-2.76,16.89-5.54,33.76-8.3,50.64c-1.28,7.78,10.63,11.13,11.91,3.29c2.86-17.42,6.58-34.9,8.6-52.43
		c0.82-7.1-4.35-11.63-8.39-17.19c-5.38-7.41-10.75-14.82-16.13-22.24c-0.76-1.04-1.69-1.72-2.69-2.15c1.58-1.93,2.82-4.1,3.63-6.41
		c3.99-11.37,6.81-23.35,9.51-35.32c0.79,2.87,1.59,5.76,2.38,8.63c0.72,2.62,3.24,4.54,5.95,4.54c16.27,0,32.56,0,48.84,0
		c-1.28,33.45-2.58,66.92-3.88,100.37c-0.26,6.83-0.53,13.67-0.78,20.49c-0.31,7.96,12.04,7.95,12.35,0
		c1.87-48.38,3.74-96.77,5.61-145.14c0.26-6.83,0.53-13.67,0.79-20.5C214.52,72.72,202.16,72.73,201.85,80.68z M74.22,139.43
		c-4.23-1.2-19.81-2.89-21.68-7.68c-1.23-3.12,2.53-10.92,3.33-13.85c4.18-15.58,8.35-31.17,12.53-46.74
		c1.89-7.09,7.04-4.66,12.42-2.52c4.71,1.87,9.41,3.74,14.11,5.61c2.14,0.84,7.69,2.62,7.57,3.47c-4.4,12.28-8.8,24.55-13.19,36.83
		c-2.09,5.84-4.18,11.69-6.28,17.52c-0.57,0.77-0.94,1.7-0.99,2.78c-0.2,0.54-0.39,1.09-0.58,1.63
		C79.38,142.24,80.13,141.11,74.22,139.43z M124,134.54c-0.81,3.17-1.55,6.37-2.42,9.52c-0.05,0.16-0.15,0.44-0.24,0.71
		c-0.51,0.51-1.72,2.03-2.08,2.36c-4.01,3.82-8.45,3.77-12.5,1.72c-0.61-0.64-1.38-1.09-2.26-1.36c-4.15-2.92-7.68-7.72-9.57-12.08
		c6.22-17.39,12.46-34.77,18.68-52.16c0.38-0.61,0.67-1.34,0.81-2.25c0.06-0.16,0.07-0.32,0.12-0.48
		c8.04-1.24,18.05-0.56,21.45,7.06C131.98,103.24,128,118.89,124,134.54z"/>
</g>
</svg>
