<?xml version="1.0" encoding="utf-8"?>
<!-- Generator: Adobe Illustrator 26.0.1, SVG Export Plug-In . SVG Version: 6.00 Build 0)  -->
<svg version="1.1" id="_x3C_Layer_x3E_" xmlns="http://www.w3.org/2000/svg" xmlns:xlink="http://www.w3.org/1999/xlink" x="0px"
	 y="0px" viewBox="0 0 255 255" style="enable-background:new 0 0 255 255;" xml:space="preserve">
<style type="text/css">
	.st0{fill:#FFFFFF;}
	.st1{fill:#42210B;}
	.st2{fill:#ED1C24;}
	.st3{fill:#2E3192;}
	.st4{fill:#93278F;}
	.st5{fill:#FFAB20;}
	.st6{fill:#79774C;}
	.st7{fill:#39B54A;}
	.st8{fill:#22B573;}
	.st9{fill:#997759;}
	.st10{fill:#0064A6;}
	.st11{fill:#54B1D9;}
	.st12{fill:#29A9E0;}
	.st13{fill:#F7931E;}
	.st14{fill:#009245;}
	.st15{fill:#00A7B7;}
	.st16{fill:#29ABE2;}
	.st17{fill:#896239;}
	.st18{fill:#754C24;}
	.st19{fill:#0B5587;}
	.st20{fill:#00A99D;}
	.st21{fill:#00CAFF;}
	.st22{fill:#00ACE4;}
	.st23{fill:#65C8D0;}
</style>
<g>
	<path d="M39.32,133.09c15.91,0,31.82,0,47.73,0c-16.39,36.3-32.76,72.6-49.15,108.9c-3.1,6.87,4.88,14.22,10.88,8.41
		c50.06-48.46,100.12-96.91,150.18-145.36c7.16-6.93,14.32-13.86,21.48-20.79c4.34-4.2,1.04-11.83-4.9-11.83
		c-28.32,0-56.62,0-84.92,0c11.13-19.78,22.26-39.56,33.38-59.34c2.56-4.56-0.67-10.42-5.99-10.42c-21.73,0-43.45,0-65.18,0
		c-2.5-0.55-5.13,0.32-6.54,3.42C68.64,44.95,50.98,83.81,33.33,122.67C31.22,127.31,33.65,133.09,39.32,133.09z M96.7,16.51
		c16.48,0,32.97,0,49.45,0c-11.13,19.78-22.26,39.55-33.38,59.33c-2.56,4.57,0.67,10.44,5.99,10.44c26.55,0,53.1,0,79.65,0
		c-44.45,43.02-88.91,86.06-133.36,129.08c12.91-28.57,25.8-57.13,38.69-85.7c2.09-4.64-0.32-10.42-5.99-10.42
		c-15.9,0-31.81,0-47.71,0C65.6,84.99,81.15,50.76,96.7,16.51z"/>
	<path d="M81.51,107.61c17.71,0,35.42,0,53.14,0c-11.04,15.4-22.09,30.78-33.13,46.18c-5.21,7.26,6.81,14.19,11.98,7
		c13.54-18.88,27.08-37.75,40.61-56.62c3.15-4.4-1.11-10.44-5.99-10.44c-18.65,0-37.31,0-55.96,0c8.73-19.56,17.47-39.13,26.2-58.71
		c3.61-8.07-8.34-15.14-11.96-7C96.09,51.09,85.8,74.13,75.52,97.18C73.44,101.83,75.82,107.61,81.51,107.61z"/>
</g>
</svg>
