<?xml version="1.0" encoding="utf-8"?>
<!-- Generator: Adobe Illustrator 26.0.1, SVG Export Plug-In . SVG Version: 6.00 Build 0)  -->
<svg version="1.1" id="_x3C_Layer_x3E_" xmlns="http://www.w3.org/2000/svg" xmlns:xlink="http://www.w3.org/1999/xlink" x="0px"
	 y="0px" viewBox="0 0 255 255" style="enable-background:new 0 0 255 255;" xml:space="preserve">
<style type="text/css">
	.st0{fill:#FFFFFF;}
	.st1{fill:#42210B;}
	.st2{fill:#ED1C24;}
	.st3{fill:#2E3192;}
	.st4{fill:#93278F;}
	.st5{fill:#FFAB20;}
	.st6{fill:#79774C;}
	.st7{fill:#39B54A;}
	.st8{fill:#22B573;}
	.st9{fill:#997759;}
	.st10{fill:#0064A6;}
	.st11{fill:#54B1D9;}
	.st12{fill:#29A9E0;}
	.st13{fill:#F7931E;}
	.st14{fill:#009245;}
	.st15{fill:#00A7B7;}
	.st16{fill:#29ABE2;}
	.st17{fill:#896239;}
	.st18{fill:#754C24;}
	.st19{fill:#0B5587;}
	.st20{fill:#00A99D;}
	.st21{fill:#00CAFF;}
	.st22{fill:#00ACE4;}
	.st23{fill:#65C8D0;}
</style>
<g>
	<path d="M86.9,62.83c28.01,0,56.03,0,84.05,0c6.55,0,6.56-10.18,0-10.18c-28.02,0-56.04,0-84.05,0
		C80.35,52.65,80.34,62.83,86.9,62.83z"/>
	<path d="M226.97,157.51c-0.03-0.05-0.06-0.08-0.08-0.13c0.09-0.49,0.14-0.99,0.14-1.5V45.02c0-5.98-4.87-10.85-10.85-10.85H38.84
		c-5.99,0-10.86,4.87-10.86,10.85v110.86c0,0.52,0.06,1.01,0.14,1.5c-0.02,0.05-0.06,0.08-0.08,0.13l-24.87,45.6
		c-1.51,2.77-1.46,6.04,0.16,8.76c1.61,2.72,4.46,4.33,7.62,4.33h233.13c3.15,0,6-1.61,7.61-4.33c1.61-2.72,1.68-5.99,0.17-8.76
		L226.97,157.51z M38.15,142.93c48.47,0,96.94,0,145.4,0c0,0.47,0,0.93,0,1.41c0,6.54,10.17,6.55,10.17,0c0-0.48,0-0.94,0-1.41
		c1.8,0,3.6,0,5.4,0c5.91,0,11.81,0,17.72,0v10.89H38.15V142.93z M38.84,44.35h177.33c0.38,0,0.68,0.3,0.68,0.67v87.73
		c-7.7,0-15.42,0-23.12,0c0-0.47,0-0.94,0-1.41c0-6.54-10.17-6.56-10.17,0c0,0.47,0,0.94,0,1.41c-41.61,0-83.22,0-124.84,0
		c-6.86,0-13.71,0-20.57,0V45.02C38.15,44.65,38.46,44.35,38.84,44.35z M13.16,206.03l22.92-42.03h0.02h182.8h0.01l22.93,42.03
		H13.16z"/>
</g>
</svg>
